<?xml version="1.0" standalone="no"?>
<!DOCTYPE svg PUBLIC "-//W3C//DTD SVG 20010904//EN"
 "http://www.w3.org/TR/2001/REC-SVG-20010904/DTD/svg10.dtd">
<svg version="1.0" xmlns="http://www.w3.org/2000/svg"
 width="500.000000pt" height="500.000000pt" viewBox="0 0 500.000000 500.000000"
 preserveAspectRatio="xMidYMid meet">
<metadata>
Created by potrace 1.11, written by Peter Selinger 2001-2013
</metadata>
<g transform="translate(0.000000,500.000000) scale(0.100000,-0.100000)"
fill="#000000" stroke="none">
<path d="M0 2500 l0 -2500 2500 0 2500 0 0 2500 0 2500 -2500 0 -2500 0 0
-2500z m1735 1237 c284 -64 495 -227 606 -472 28 -63 62 -181 74 -262 6 -37 4
-43 -12 -43 -10 0 -106 -9 -213 -20 -280 -28 -254 -33 -275 46 -50 186 -154
289 -325 325 -76 16 -230 6 -310 -21 -245 -81 -415 -278 -518 -601 -51 -159
-66 -257 -65 -424 0 -230 41 -352 155 -471 88 -92 209 -144 337 -144 68 0 191
34 264 72 97 51 204 164 258 273 25 50 50 105 57 123 6 17 17 32 24 32 22 0
493 -72 497 -76 8 -7 -76 -192 -125 -274 -203 -340 -506 -533 -898 -569 -431
-41 -772 118 -944 439 -155 288 -174 774 -46 1168 164 502 529 827 1019 908
102 17 345 12 440 -9z m3065 -31 c0 -7 -18 -99 -40 -205 -22 -105 -40 -194
-40 -196 0 -3 -294 -5 -654 -5 -615 0 -655 -1 -660 -17 -11 -37 -106 -498
-106 -515 0 -17 29 -18 630 -18 l630 0 -6 -27 c-3 -16 -22 -107 -42 -203 l-37
-175 -635 -5 -634 -5 -73 -315 c-40 -173 -73 -321 -73 -327 0 -10 152 -13 708
-15 l708 -3 -37 -180 c-21 -99 -41 -190 -44 -202 l-5 -23 -955 0 c-793 0 -955
2 -955 13 0 15 498 2404 505 2425 7 19 1815 18 1815 -2z"/>
</g>
</svg>
